<svg width="200" height="125" viewBox="0 0 1476 918" fill="none" xmlns="http://www.w3.org/2000/svg">
    <path d="M844.24 21.3615C862.027 3.22812 888.88 -1.15855 913.24 0.241455C899.147 9.56145 884.947 19.4948 874.853 33.3215C865.56 45.6015 860.467 61.1081 861.507 76.5481C861.96 88.7748 866.707 100.201 869.2 112.055C874.707 136.735 875.813 162.761 869.653 187.428C864.347 209.335 853.2 229.855 837.44 246.001C865.053 230.281 892.547 213.908 922.413 202.775C935.373 198.188 949.653 193.615 963.28 198.228C985.547 205.281 1004.76 220.335 1019.37 238.308C1027.44 248.935 1035.63 262.815 1030.51 276.495C1009.77 259.135 982.32 251.601 955.627 251.575C932.6 251.108 909.827 256.108 888.133 263.521C857.387 273.961 828.44 288.841 798.453 301.188C759.56 317.695 713.2 319.361 674.933 300.161C643.24 285.135 611.347 270.055 577.573 260.295C549.787 251.948 519.947 248.508 491.347 254.588C474.4 258.081 458.36 265.588 444.867 276.441C441.773 268.135 443.867 259.041 447.76 251.388C454.253 238.601 464.387 228.041 475.293 218.895C488.547 208.295 503.733 198.855 520.827 196.455C535.147 195.481 548.827 201.148 561.933 206.215C600.493 222.588 636.16 244.868 671.587 267.015C641.92 230.321 608.8 195.601 568.867 169.975C536.187 149.108 500.293 133.575 463.32 122.135C457.08 120.041 450.587 118.508 444.813 115.281C460.213 107.575 475.36 98.2015 492.747 95.8148C516.933 91.9215 541.147 100.268 562.107 111.828C605.96 136.241 641.547 173.001 671.373 212.908C680.24 224.668 688.507 236.868 696.773 249.055C696.933 249.095 697.253 249.161 697.427 249.201C691.493 222.508 683.133 196.041 669.187 172.361C652.173 144.041 628.413 120.428 602.507 100.188C589.867 89.9081 576.387 79.9881 567.24 66.2415C560.133 55.6548 556.88 42.9215 556.36 30.2815C581.747 50.1748 611.68 62.9348 638.72 80.2948C655.693 91.1481 671.947 104.108 682.933 121.268C695.12 140.215 702.48 161.735 709.08 183.135C714.04 199.588 718.613 216.161 723.613 232.601C723.813 232.841 724.213 233.335 724.413 233.588C724.653 232.175 724.293 230.975 723.333 229.961C721.987 209.161 732.48 190.335 741.707 172.481C750.6 155.015 761.053 136.828 760.333 116.575C759.213 86.3481 746.12 57.6281 747.347 27.1881C748.16 17.5615 750.747 6.52146 758.973 0.574788C769.84 26.7348 781.84 52.7215 787.613 80.6148C794.053 110.348 792 141.495 783.813 170.668C773.8 206.535 757.227 240.228 738.373 272.201C760.053 258.228 779.867 241.175 796.173 221.135C807.667 206.295 818.813 190.135 822.76 171.481C828.52 140.521 821.52 109.135 822.947 77.9748C823.48 57.5348 828.733 35.7481 844.24 21.3615Z" fill="#EADEDA"/>
    <path d="M0 487.935C19.1467 487.842 38.2933 487.922 57.44 487.895C89.3067 577.375 121.387 666.788 153 756.362C165.933 794.442 177.693 832.908 189.12 871.455C204.227 819.562 220.533 768.015 238.533 717.042C265.013 640.682 291.64 564.375 318.027 487.988C339.92 487.522 361.84 487.642 383.747 487.975C413.12 536.068 442.667 584.042 472.08 632.108C484.373 652.562 496.28 673.348 505.52 695.402C522.987 655.628 546.987 619.268 569.4 582.215C588.613 550.775 607.827 519.348 627.04 487.908C648.587 487.855 670.173 487.295 691.693 488.148C711.333 544.388 731.533 600.428 751.4 656.588C767.693 703.042 784.973 749.148 799.773 796.095C807.72 821.095 815.36 846.188 822.68 871.388C846.907 828.335 869.76 784.482 893.88 741.362C879.093 735.175 864.507 727.788 852.653 716.762C832.693 699.162 821.08 673.735 816.787 647.788C812.4 619.655 814.4 590.122 825.027 563.548C833.133 542.842 847.573 524.708 866.093 512.375C886.547 498.242 911.16 491.362 935.707 489.082C949.36 487.548 963.133 487.962 976.853 487.895C1020.28 487.895 1063.72 487.882 1107.16 487.895C1107.2 559.322 1107.07 630.748 1107.23 702.175C1130.63 701.935 1154.09 702.695 1177.48 701.788C1203.12 630.428 1229.01 559.162 1254.87 487.882C1275.89 487.908 1296.92 487.922 1317.95 487.868C1370.57 630.988 1423 774.188 1475.47 917.362C1456.31 917.402 1437.16 917.402 1418.01 917.362C1398.25 861.828 1378.47 806.295 1358.64 750.775C1310.8 750.748 1262.96 750.788 1215.12 750.748C1195.8 806.268 1176.67 861.855 1157.37 917.388C1122.43 917.388 1087.49 917.442 1052.56 917.362C1052.47 861.815 1052.71 806.268 1052.44 750.722C1018.39 750.802 984.333 750.788 950.293 750.722C920.667 806.282 890.867 861.748 861.253 917.308C837.987 917.615 814.693 917.682 791.427 917.268C751.333 807.775 711.133 698.308 671 588.828C665.493 574.068 660.307 559.188 654.6 544.508C614.187 610.042 573.067 675.175 532.693 740.722C532.253 799.148 532.64 857.628 532.493 916.068C514.293 916.055 496.093 916.082 477.893 916.055C477.92 858.482 477.88 800.908 477.92 743.348C478.307 740.135 475.853 737.722 474.413 735.148C434.92 671.788 395.493 608.388 356 545.028C355.84 545.055 355.533 545.108 355.387 545.135C310.293 668.748 265.453 792.468 220.36 916.095C199.413 916.042 178.467 916.042 157.533 916.095C104.933 773.402 52.56 630.628 0 487.935ZM1286.05 532.402C1278.73 557.375 1271.6 582.402 1263.67 607.188C1253.83 639.095 1242.75 670.588 1232.04 702.202C1268.35 702.162 1304.65 702.202 1340.96 702.175C1340.41 699.762 1339.72 697.388 1338.85 695.095C1327.64 664.375 1317.04 633.455 1307.39 602.215C1299.93 579.055 1293.65 555.482 1286.05 532.402ZM936.413 537.988C917.96 540.748 899.613 548.615 887.173 562.882C873.293 579.042 868.573 601.148 869.093 621.988C868.92 643.922 875.587 667.482 892.893 682.055C910.8 697.495 935.307 701.482 958.2 702.042C989.56 702.442 1020.93 701.962 1052.29 702.282C1052.89 684.428 1052.39 666.535 1052.56 648.655C1052.51 611.108 1052.64 573.548 1052.49 535.988C1029.53 536.082 1006.56 536.002 983.6 536.028C967.867 536.135 952.013 535.388 936.413 537.988ZM1107.35 895.735L1105.72 895.882C1108.39 896.922 1107.83 892.842 1108.8 891.415C1125.55 844.482 1142.89 797.748 1159.51 750.762C1142.05 750.775 1124.61 750.748 1107.19 750.775C1107.25 799.095 1106.92 847.415 1107.35 895.735Z" fill="#EADEDA"/>
</svg>
